# xmcd CD database file
#
# Track frame offsets:
#	150
#	13052
#	32512
#	53000
#	87478
#	122562
#	145319
#	166323
#	194119
#	214430
#
# Disc length: 3047 seconds
#
# Revision: 0
# Processed by: cddbd v1.5.2PL0 Copyright (c) Steve Scherf et al.
# Submitted via: CDex 1.70beta2
#
DISCID=900be50a
DTITLE=KBS Trio - What Am I Here For
DYEAR=2010
DGENRE=Jazz
TTITLE0=All God's Chillun Got Rhythm
TTITLE1=Now See How You Are
TTITLE2=Poor Butterfly
TTITLE3=What Am I Here For
TTITLE4=Little Girl Blue
TTITLE5=(They Long To Be) Close To You
TTITLE6=Fiesta Mojo
TTITLE7=As Long As I Live
TTITLE8=The Shadow Of Your Smile
TTITLE9=Tippin'
EXTD=YEAR: 2010
EXTT0=
EXTT1=
EXTT2=
EXTT3=
EXTT4=
EXTT5=
EXTT6=
EXTT7=
EXTT8=
EXTT9=
PLAYORDER=
